<svg width="50" height="50" viewBox="0 0 50 50" fill="none" xmlns="http://www.w3.org/2000/svg">
<g clip-path="url(#clip0_9_5)">
<path d="M43.75 15.8333C43.75 30.4167 25 42.9167 25 42.9167C25 42.9167 6.25 30.4167 6.25 15.8333C6.25 10.8605 8.22544 6.09139 11.7417 2.57508C15.2581 -0.941224 20.0272 -2.91666 25 -2.91666C29.9728 -2.91666 34.7419 -0.941224 38.2583 2.57508C41.7746 6.09139 43.75 10.8605 43.75 15.8333Z" fill="white" stroke="#5C7AE8" stroke-width="2" stroke-linecap="round" stroke-linejoin="round"/>
<path d="M25 27.0833C28.4518 27.0833 31.25 24.2851 31.25 20.8333C31.25 17.3816 28.4518 14.5833 25 14.5833C21.5482 14.5833 18.75 17.3816 18.75 20.8333C18.75 24.2851 21.5482 27.0833 25 27.0833Z" fill="#5C7AE8"/>
</g>
<defs>
<clipPath id="clip0_9_5">
<rect width="50" height="50" fill="white"/>
</clipPath>
</defs>
</svg>
